# xmcd
# Track frame offsets:
# 150
# 12664
# 24170
# 34187
# 47316
# 60321
# 72775
# 84038
# 97767
# 111503
# 126259
# 138656
# 151907
# 166456
# 178007
# 188341
#
# Disc length: 2692 seconds
# Revision: 1
# Processed by: cddbd v1.5.2PL0 Copyright (c) Steve Scherf et al.
# Submitted via: VisiTrax 2.10.0.248 - For more info visit www.synapsa.com
#
DISCID=bf0a8210
DTITLE=King Oliver - Off The Record CD 1: The Complete 1923 Jazz Band Recordi
DTITLE=ngs
DYEAR=1900
DGENRE=Jazz
TTITLE0=King Oliver's Creole Jazz Band - Just Gone
TTITLE1=King Oliver's Creole Jazz Band - Canal Street Blues
TTITLE2=King Oliver's Creole Jazz Band - Mandy Lee Blues
TTITLE3=King Oliver's Creole Jazz Band - I'm Going Away To Wear You Off My MIn
TTITLE3=d
TTITLE4=King Oliver's Creole Jazz Band - Chimes Blues
TTITLE5=King Oliver's Creole Jazz Band - Weather Bird Rag
TTITLE6=King Oliver's Creole Jazz Band - Dipper Mouth Blues
TTITLE7=King Oliver's Creole Jazz Band - Froggie Moore
TTITLE8=King Oliver's Creole Jazz Band - Snake Rag
TTITLE9=King Oliver's Jazz Band - Snake Rag
TTITLE10=King Oliver's Jazz Band - Sweet Lovin' Man
TTITLE11=King Oliver's Jazz Band - High Society Rag
TTITLE12=King Oliver's Jazz Band - Sobbin' Blues
TTITLE13=King Oliver's Jazz Band - Where Did You Stay Last Night
TTITLE14=King Oliver's Jazz Band - Dipper Mouth Blues
TTITLE15=King Oliver's Jazz Band - Jazzin' Babies' Blues
EXTD=
EXTT0=
EXTT1=
EXTT2=
EXTT3=
EXTT4=
EXTT5=
EXTT6=
EXTT7=
EXTT8=
EXTT9=
EXTT10=
EXTT11=
EXTT12=
EXTT13=
EXTT14=
EXTT15=
PLAYORDER=
